<?xml version="1.0" encoding="utf-8"?>
<!-- Generator: Adobe Illustrator 26.0.2, SVG Export Plug-In . SVG Version: 6.00 Build 0)  -->
<svg version="1.1" id="Ebene_1" xmlns="http://www.w3.org/2000/svg" xmlns:xlink="http://www.w3.org/1999/xlink" x="0px" y="0px"
	 viewBox="0 0 333.9 170.1" style="enable-background:new 0 0 333.9 170.1;" xml:space="preserve">
<style type="text/css">
	.st0{fill:#8BB31D;}
	.st1{fill:#72787A;}
	.st2{fill:#00649C;}
	.st3{fill:#FFFFFF;}
</style>
<g>
	<path class="st0" d="M105.6,52.7V0H12.1C0.7,19.5-1.3,37.4,0.6,52.7H105.6L105.6,52.7z"/>
	<path class="st1" d="M333.9,111.2V58.5H1.5c2.1,11,6,20.3,9.4,27.4c3.1,7.2,7.6,14.9,10.3,25.2H333.9L333.9,111.2z"/>
	<path class="st2" d="M175.9,170.1v-52.7H22.5c2.4,12.8,1.8,29.3-6.3,52.7H175.9L175.9,170.1z"/>
	<path class="st3" d="M82.7,126.2h-5.6l-5.4,21.7c-0.5,1.9-0.9,3.9-1.2,6.1h-0.1c-0.4-2.2-0.9-4.5-1.4-6.4L63,126.2h-6.1L51,147.5
		c-0.6,2.1-1,4.3-1.4,6.6h-0.1c-0.3-2.3-0.7-4.5-1.3-6.8l-5.3-21.1h-6l9,34.7h6.6l5.9-21.5c0.6-2.2,1-4.3,1.2-6.4h0.1
		c0.4,2.2,0.7,4.4,1.3,6.5l5.9,21.4h6.9L82.7,126.2L82.7,126.2z"/>
	<polygon class="st3" points="95,160.8 95,126.2 89.4,126.2 89.4,160.8 95,160.8 	"/>
	<polygon class="st3" points="122.5,160.8 122.5,156.1 109.8,156.1 109.8,145.3 120.1,145.3 120.1,140.7 109.8,140.7 109.8,130.8 
		122.5,130.8 122.5,126.2 104.2,126.2 104.2,160.8 122.5,160.8 	"/>
	<path class="st3" d="M158.4,160.8v-34.7H153v10.3c0,5.1,0.2,12.5,0.4,16.5c-1.3-2.5-2.7-5.3-4.2-7.9l-11.5-18.9h-7.3v34.7h5.4
		v-11.7c0-4.9-0.1-12-0.3-15.4c1.1,2.3,2.3,4.8,3.9,7.3l11.9,19.7H158.4L158.4,160.8z"/>
	<polygon class="st3" points="53.1,13.8 53.1,9.1 33.6,9.1 33.6,43.7 39.2,43.7 39.2,28.1 51.2,28.1 51.2,23.5 39.2,23.5 39.2,13.8 
		53.1,13.8 	"/>
	<polygon class="st3" points="88,43.7 88,9.1 82.4,9.1 82.4,23.4 66.1,23.4 66.1,9.1 60.5,9.1 60.5,43.7 66.1,43.7 66.1,28.2 
		82.4,28.2 82.4,43.7 88,43.7 	"/>
	<polygon class="st3" points="57.8,72.2 57.8,67.4 32.7,67.4 32.7,72.2 42.5,72.2 42.5,102.1 48.1,102.1 48.1,72.2 57.8,72.2 	"/>
	<polygon class="st3" points="147.8,102.1 147.8,67.4 142.2,67.4 142.2,81.8 125.8,81.8 125.8,67.4 120.2,67.4 120.2,102.1 
		125.8,102.1 125.8,86.5 142.2,86.5 142.2,102.1 147.8,102.1 	"/>
	<path class="st3" d="M185.4,102.1V67.4h-5.4v10.3c0,5.1,0.2,12.5,0.4,16.5c-1.3-2.5-2.7-5.3-4.2-7.9l-11.5-18.9h-7.3v34.7h5.4V90.4
		c0-4.9-0.1-12-0.3-15.4c1.1,2.3,2.3,4.8,3.9,7.3l11.9,19.7H185.4L185.4,102.1z"/>
	<polygon class="st3" points="201,102.1 201,67.4 195.4,67.4 195.4,102.1 201,102.1 	"/>
	<polygon class="st3" points="236.6,102.1 222.3,84.2 236.1,67.4 229.2,67.4 216.5,83.5 216.5,67.4 211,67.4 211,102.1 216.5,102.1 
		216.5,85.2 229.1,102.1 236.6,102.1 	"/>
	<path class="st3" d="M316.6,102.1l-5.3-34.7h-6.7l-6.8,20.2c-0.8,2.6-1.4,4.3-1.9,6.9h-0.1c-0.4-2.3-1.1-4.6-1.9-7.1l-6.7-20h-6.7
		l-5.2,34.7h5.7l2.2-17.9c0.4-3.3,0.7-6,0.9-9h0.1c0.4,2.5,1.3,5.5,2.2,8.2l6.2,18.7h5.8L305,82c0.9-2.6,1.4-4.8,1.8-6.8h0.1
		c0.3,2.3,0.5,4.8,1.1,8.5l2.7,18.4H316.6L316.6,102.1z"/>
	<polygon class="st3" points="82,102.1 82,97.3 69.3,97.3 69.3,86.5 79.6,86.5 79.6,82 69.3,82 69.3,72.1 82,72.1 82,67.4 
		63.7,67.4 63.7,102.1 82,102.1 	"/>
	<path class="st3" d="M269.1,89.6V67.5h-5.7v20.9c0,5.6-3.5,9-8,9c-4.4,0-8-3.4-8-9V67.5h-5.7v22.2c0,7.1,5.4,13.1,13.6,13.1
		C263.7,102.8,269.1,96.7,269.1,89.6L269.1,89.6z"/>
	<path class="st3" d="M114,69.8c-2.9-1.8-6.2-2.7-9.5-2.7c-10.1,0-18.1,7.7-18.1,17.7c0,10,8,17.7,18.1,17.7c3.3,0,6.6-0.9,9.5-2.7
		l-3.5-3.9c-1.8,1-3.8,1.7-6.1,1.7c-6.9,0-12.4-5.7-12.4-12.7c0-7,5.6-12.7,12.4-12.7c2.2,0,4.3,0.6,6.1,1.7L114,69.8L114,69.8z"/>
	<path class="st1" d="M132.2,43.7l-4.9-13.4h-2l-4.9,13.4h1.9l1.1-3.1h5.7l1.1,3.1H132.2L132.2,43.7z M128.5,39.1h-4.7l1.7-4.8
		c0.3-0.7,0.5-1.4,0.6-2h0c0.2,0.7,0.3,1.3,0.6,2L128.5,39.1L128.5,39.1z M143,38.3c0-3-1.3-4.6-3.6-4.6c-1.6,0-2.8,0.8-3.3,2.2l0,0
		c0.1-0.6,0.2-1.4,0.2-2h-1.7v14.7h1.8v-4.9c0.6,0.1,1.1,0.1,1.7,0.1C141.1,43.8,143,41.8,143,38.3L143,38.3z M141.1,38.5
		c0,2.8-1.2,4-3.1,4c-0.7,0-1.2-0.1-1.7-0.2v-3.3c0-1.7,0.9-3.8,2.7-3.8C140.4,35.1,141.1,36.3,141.1,38.5L141.1,38.5z M154.4,38.3
		c0-3-1.3-4.6-3.6-4.6c-1.6,0-2.8,0.8-3.3,2.2l0,0c0.1-0.6,0.2-1.4,0.2-2h-1.7v14.7h1.8v-4.9c0.6,0.1,1.1,0.1,1.7,0.1
		C152.5,43.8,154.4,41.8,154.4,38.3L154.4,38.3z M152.5,38.5c0,2.8-1.2,4-3.1,4c-0.7,0-1.2-0.1-1.7-0.2v-3.3c0-1.7,0.9-3.8,2.7-3.8
		C151.9,35.1,152.5,36.3,152.5,38.5L152.5,38.5z M159.1,43.7V29.2h-1.8v14.5H159.1L159.1,43.7z M165,31.1c0-0.7-0.5-1.1-1.2-1.1
		s-1.2,0.5-1.2,1.1c0,0.7,0.5,1.2,1.2,1.2S165,31.7,165,31.1L165,31.1z M164.7,43.7v-9.9h-1.8v9.9H164.7L164.7,43.7z M175.9,37.8
		c0-2.3-1.2-4.1-3.9-4.1c-2.8,0-4.4,2.2-4.4,5.2c0,3.5,1.6,5.1,4.7,5.1c1.2,0,2.4-0.2,3.3-0.6l-0.2-1.4c-0.8,0.4-1.9,0.6-2.9,0.6
		c-2.1,0-3.2-1.1-3.1-3.8h6.4C175.9,38.3,175.9,38,175.9,37.8L175.9,37.8z M174.1,37.4h-4.6c0.2-1.4,1.1-2.4,2.4-2.4
		C173.3,35,174.1,35.9,174.1,37.4L174.1,37.4z M186.6,43.7V29.2h-1.8v4.6c-0.6-0.1-1.1-0.1-1.7-0.1c-3.1,0-5.1,2.1-5.1,5.5
		c0,2.9,1.2,4.6,3.6,4.6c1.5,0,2.8-0.9,3.3-2.2l0,0c-0.1,0.6-0.2,1.4-0.2,2H186.6L186.6,43.7z M184.8,38.6c0,1.7-0.9,3.8-2.7,3.8
		c-1.5,0-2.2-1.2-2.2-3.3c0-2.8,1.2-4,3.1-4c0.6,0,1.1,0.1,1.7,0.2V38.6L184.8,38.6z M202.3,39.8c0-4.2-6-3.1-6-6
		c0-1.2,1-2.1,2.8-2.1c0.8,0,1.6,0.1,2.4,0.4l0.1-1.6c-0.8-0.2-1.6-0.2-2.4-0.2c-3,0-4.8,1.6-4.8,3.8c0,4.3,6,3.1,6,6.1
		c0,1.6-1.3,2.3-2.9,2.3c-0.9,0-2-0.2-2.8-0.5l-0.1,1.7c0.8,0.2,1.7,0.3,2.7,0.3C200.4,43.9,202.3,42.2,202.3,39.8L202.3,39.8z
		 M211.7,43.3l-0.1-1.5c-0.6,0.3-1.5,0.5-2.3,0.5c-2.2,0-2.8-1.5-2.8-3.4c0-2.2,1-3.7,3-3.7c0.8,0,1.5,0.2,2.1,0.4l0.2-1.6
		c-0.7-0.2-1.5-0.3-2.2-0.3c-3.3,0-4.9,2.2-4.9,5.4c0,3.6,2,4.7,4.3,4.7C210,43.8,211.1,43.6,211.7,43.3L211.7,43.3z M216.5,31.1
		c0-0.7-0.5-1.1-1.2-1.1s-1.2,0.5-1.2,1.1c0,0.7,0.5,1.2,1.2,1.2S216.5,31.7,216.5,31.1L216.5,31.1z M216.2,43.7v-9.9h-1.8v9.9
		H216.2L216.2,43.7z M227.5,37.8c0-2.3-1.2-4.1-3.9-4.1c-2.8,0-4.4,2.2-4.4,5.2c0,3.5,1.6,5.1,4.7,5.1c1.2,0,2.4-0.2,3.3-0.6
		l-0.2-1.4c-0.8,0.4-1.9,0.6-2.9,0.6c-2.1,0-3.2-1.1-3.1-3.8h6.4C227.4,38.3,227.5,38,227.5,37.8L227.5,37.8z M225.6,37.4H221
		c0.2-1.4,1.1-2.4,2.4-2.4C224.8,35,225.7,35.9,225.6,37.4L225.6,37.4z M238.5,43.7v-6.9c0-1.7-0.7-3.2-3-3.2
		c-1.7,0-2.9,0.9-3.5,2.3l0,0c0.1-0.6,0.2-1.5,0.2-2.1h-1.7v9.9h1.8V39c0-2.2,1.2-3.8,2.8-3.8c1.3,0,1.7,0.8,1.7,2.2v6.4H238.5
		L238.5,43.7z M248.6,43.3l-0.1-1.5c-0.6,0.3-1.5,0.5-2.3,0.5c-2.2,0-2.8-1.5-2.8-3.4c0-2.2,1-3.7,3-3.7c0.8,0,1.5,0.2,2.1,0.4
		l0.2-1.6c-0.7-0.2-1.5-0.3-2.2-0.3c-3.3,0-4.9,2.2-4.9,5.4c0,3.6,2,4.7,4.3,4.7C246.8,43.8,247.9,43.6,248.6,43.3L248.6,43.3z
		 M258.7,37.8c0-2.3-1.2-4.1-3.9-4.1c-2.8,0-4.4,2.2-4.4,5.2c0,3.5,1.6,5.1,4.7,5.1c1.2,0,2.4-0.2,3.3-0.6l-0.2-1.4
		c-0.8,0.4-1.9,0.6-2.9,0.6c-2.1,0-3.2-1.1-3.1-3.8h6.4C258.7,38.3,258.7,38,258.7,37.8L258.7,37.8z M256.9,37.4h-4.6
		c0.2-1.4,1.1-2.4,2.4-2.4C256.1,35,256.9,35.9,256.9,37.4L256.9,37.4z M267.5,40.7c0-3.3-4.6-2.1-4.6-4.3c0-0.9,0.7-1.4,2-1.4
		c0.7,0,1.4,0.1,2,0.3l0-1.5c-0.6-0.1-1.3-0.2-1.9-0.2c-2.6,0-3.9,1.3-3.9,3c0,3.5,4.6,2.1,4.6,4.3c0,0.9-0.9,1.5-2.2,1.5
		c-0.8,0-1.5-0.1-2.2-0.3l-0.1,1.6c0.6,0.1,1.3,0.2,2.1,0.2C265.9,43.9,267.5,42.5,267.5,40.7L267.5,40.7z"/>
	<path class="st1" d="M132.2,16.3V8h-1.8v8.4c0,2.7-1.1,3.7-3.4,3.7c-2.7,0-3.3-1.5-3.3-3.3V8h-1.8v8.9c0,2.4,0.8,4.7,5,4.7
		C130.3,21.6,132.2,19.8,132.2,16.3L132.2,16.3z M144.2,21.4v-6.9c0-1.7-0.7-3.2-3-3.2c-1.7,0-2.9,0.9-3.5,2.3l0,0
		c0.1-0.6,0.2-1.5,0.2-2.1h-1.7v9.9h1.8v-4.7c0-2.2,1.2-3.8,2.8-3.8c1.3,0,1.7,0.8,1.7,2.2v6.4H144.2L144.2,21.4z M150.2,8.8
		c0-0.7-0.5-1.1-1.2-1.1s-1.2,0.5-1.2,1.1c0,0.7,0.5,1.2,1.2,1.2S150.2,9.4,150.2,8.8L150.2,8.8z M149.9,21.4v-9.9h-1.8v9.9H149.9
		L149.9,21.4z M161.7,11.5h-1.9l-2.1,5.9c-0.2,0.6-0.4,1.2-0.6,1.8h0c-0.2-0.6-0.4-1.2-0.6-1.9l-2.1-5.9h-2l3.7,9.9h1.8L161.7,11.5
		L161.7,11.5z M171.3,15.5c0-2.3-1.2-4.1-3.9-4.1c-2.8,0-4.4,2.2-4.4,5.2c0,3.5,1.6,5.1,4.7,5.1c1.2,0,2.4-0.2,3.3-0.6l-0.2-1.4
		c-0.8,0.4-1.9,0.6-2.9,0.6c-2.1,0-3.2-1.1-3.1-3.8h6.4C171.3,16,171.3,15.8,171.3,15.5L171.3,15.5z M169.5,15.1h-4.6
		c0.2-1.4,1.1-2.4,2.4-2.4C168.7,12.7,169.5,13.7,169.5,15.1L169.5,15.1z M179.4,11.4c-2-0.2-3,1.1-3.4,2.5h0
		c0.2-0.8,0.2-1.7,0.2-2.3h-1.7v9.9h1.8v-4c0-3.2,1-4.7,3.1-4.3L179.4,11.4L179.4,11.4z M187.9,18.4c0-3.3-4.6-2.1-4.6-4.3
		c0-0.9,0.7-1.4,2-1.4c0.7,0,1.4,0.1,2,0.3l0-1.5c-0.6-0.1-1.3-0.2-1.9-0.2c-2.6,0-3.9,1.3-3.9,3c0,3.5,4.6,2.1,4.6,4.3
		c0,0.9-0.9,1.5-2.2,1.5c-0.8,0-1.5-0.1-2.2-0.3l-0.1,1.6c0.6,0.1,1.3,0.2,2.1,0.2C186.3,21.6,187.9,20.2,187.9,18.4L187.9,18.4z
		 M193.2,8.8c0-0.7-0.5-1.1-1.2-1.1c-0.7,0-1.2,0.5-1.2,1.1c0,0.7,0.5,1.2,1.2,1.2C192.7,9.9,193.2,9.4,193.2,8.8L193.2,8.8z
		 M192.9,21.4v-9.9h-1.8v9.9H192.9L192.9,21.4z M201.8,21.4v-1.5c-0.4,0.1-0.9,0.2-1.3,0.2c-1.1,0-1.4-0.4-1.4-2.1v-5h2.8v-1.4h-2.8
		V7.9l-1.8,0.5v3.2h-2v1.4h2v5.7c0,2.1,0.6,3,2.6,3C200.5,21.6,201.3,21.5,201.8,21.4L201.8,21.4z M212.5,11.5h-1.9l-1.6,4.5
		c-0.4,1.1-0.8,2.3-1,3h0c-0.2-0.8-0.4-1.5-0.8-2.4l-1.9-5.1h-2l3.7,9.9l-0.4,1.1c-0.7,1.9-1.3,2.4-2.4,2.4c-0.5,0-0.9-0.1-1.3-0.2
		l-0.2,1.6c0.4,0.1,0.9,0.1,1.3,0.1c2.2,0,3.1-1,4.3-4L212.5,11.5L212.5,11.5z M227.8,16.3c0-3.5-1.9-4.9-4.4-4.9
		c-3,0-4.8,2.3-4.8,5.2c0,3.5,1.7,5,4.4,5C225.9,21.6,227.8,19.3,227.8,16.3L227.8,16.3z M225.9,16.4c0,2.5-1.3,3.7-2.7,3.7
		c-1.8,0-2.8-1.3-2.8-3.7c0-2.4,1.3-3.5,2.8-3.5C225,12.9,225.9,14.2,225.9,16.4L225.9,16.4z M236.4,7c-0.5-0.1-1.1-0.2-1.6-0.2
		c-2.5,0-3.8,1.3-3.8,4v0.7h-2v1.4h2v8.5h1.8v-8.5h2.7v-1.4h-2.7v-0.8c0-1.7,0.6-2.5,2-2.5c0.5,0,1,0.1,1.4,0.2L236.4,7L236.4,7z"/>
</g>
</svg>
